<?xml version="1.0" standalone="no"?>
<!DOCTYPE svg PUBLIC "-//W3C//DTD SVG 20010904//EN"
 "http://www.w3.org/TR/2001/REC-SVG-20010904/DTD/svg10.dtd">
<svg version="1.0" xmlns="http://www.w3.org/2000/svg"
 width="128.637180pt" height="150.988221pt" viewBox="0 0 128.637180 150.988221"
 preserveAspectRatio="xMidYMid meet">
<metadata>
Created by potrace 1.12, written by Peter Selinger 2001-2015
</metadata>
<g transform="translate(-95.125894,190.895629) scale(0.100000,-0.100000)"
fill="white" stroke="none">
<path d="M1530 1885 c-57 -30 -237 -90 -315 -106 -33 -6 -105 -17 -160 -23
l-100 -11 -3 -150 c-5 -240 27 -453 98 -646 99 -267 273 -460 479 -529 l63
-21 63 21 c262 87 477 388 549 769 24 126 40 355 31 463 l-7 96 -81 7 c-162
14 -337 59 -486 126 -35 16 -69 29 -75 28 -6 -1 -31 -12 -56 -24z m-224 -447
c-7 -27 -36 -170 -36 -180 0 -5 6 -8 13 -8 7 0 23 27 36 59 34 85 69 116 133
116 42 0 53 -4 74 -28 15 -18 24 -41 24 -62 0 -28 -6 -37 -31 -50 -16 -9 -47
-15 -67 -13 -33 3 -37 6 -40 34 -3 26 3 36 27 54 35 24 41 50 11 50 -30 0 -76
-48 -111 -115 l-31 -60 48 -7 c51 -7 114 -46 147 -89 10 -15 22 -47 24 -73 l6
-46 -35 0 c-53 0 -128 12 -128 20 0 4 9 10 20 13 27 7 34 31 18 64 -15 31 -72
73 -99 73 -23 0 -25 -42 -5 -118 7 -29 10 -52 6 -52 -4 0 -24 7 -43 15 -20 8
-50 15 -67 15 -26 0 -30 4 -30 26 0 20 4 24 19 19 11 -3 21 -2 24 2 2 4 -2 71
-9 148 -20 209 -24 190 44 202 31 6 59 11 61 12 2 0 0 -9 -3 -21z m404 -14
c65 -6 101 -10 106 -13 1 -1 -8 -34 -21 -73 -48 -151 -39 -235 29 -267 43 -20
123 -4 149 31 28 38 15 48 -37 30 -55 -20 -99 -9 -104 27 -5 31 21 56 72 71
55 15 82 7 101 -31 17 -31 11 -68 -22 -150 -13 -34 -17 -37 -43 -29 -56 16
-214 22 -259 10 -48 -13 -48 -13 -53 15 -2 17 2 20 30 18 27 -2 32 1 28 15
-23 80 -29 121 -30 217 -2 106 -3 110 -26 115 -13 3 -26 12 -28 19 -3 9 2 11
14 8 11 -4 53 -9 94 -13z"/>
</g>
</svg>
